<?xml version="1.0" encoding="utf-8"?>
<!-- Generator: Adobe Illustrator 27.4.0, SVG Export Plug-In . SVG Version: 6.00 Build 0)  -->
<svg version="1.1" id="Layer_1" xmlns="http://www.w3.org/2000/svg" xmlns:xlink="http://www.w3.org/1999/xlink" x="0px" y="0px"
	 viewBox="0 0 198.43 198.43" style="enable-background:new 0 0 198.43 198.43;" xml:space="preserve">
<style type="text/css">
	.st0{fill:none;}
	.st1{fill:#9966FF;}
	.st2{fill:#0066FF;}
	.st3{fill:#1D1D1B;}
</style>
<g>
	<g>
		<path class="st0" d="M131.15,55.06c-0.37,3.08-0.65,6.08-0.86,9h1.52C131.67,61.1,131.45,58.09,131.15,55.06z"/>
		<path class="st0" d="M115.97,78.2H81.71c0.19,16.9-1.6,35.68-7.56,53.52c8.95,21.29,18.15,26.02,22.85,26.93
			c0.57,0.09,1.17,0.14,1.77,0.15c0.57-0.01,1.18-0.06,1.77-0.16c3.89-0.76,13.87-4.88,23.14-26.46c-0.06-0.17-0.1-0.3-0.12-0.36
			C117.58,113.95,115.78,95.13,115.97,78.2z"/>
		<path class="st0" d="M129.78,78.2c0.01,6.86,0.39,13.05,0.95,18.44c0.62-5.7,1.08-11.91,1.24-18.44H129.78z"/>
		<path class="st0" d="M65.02,78.2c0.03,6.88,0.45,13.1,1.04,18.52c0.63-5.72,1.09-11.95,1.25-18.52H65.02z"/>
		<path class="st0" d="M66.43,54.53c-0.4,3.26-0.72,6.45-0.94,9.53h1.66C67,60.92,66.76,57.74,66.43,54.53z"/>
		<g>
			<path class="st1" d="M32.83,76.7h18.65c0.07-3.83,0.24-7.55,0.48-11.14H32.83V76.7z"/>
			<path class="st1" d="M81.06,65.56h-0.69h-0.8h-0.15h-10.4h-0.15h-0.7h-0.79h-0.15H65.4c-0.25,3.87-0.37,7.59-0.38,11.14h2.33
				h0.15h0.8h0.69h0.15H79.9h0.15h0.8h0.69h0.15h34.3c0.07-3.83,0.24-7.55,0.48-11.14H81.21H81.06z"/>
			<path class="st1" d="M167.82,71.04L156.29,60.6v4.21c0,0.41-0.34,0.75-0.75,0.75h-1.66h-7.67h-0.69h-0.81h-10.98h-0.7h-0.79
				h-2.04h0c-0.25,3.87-0.38,7.59-0.4,11.14h0.01h2.42h0.81h0.69h11.13h0.8h0.7h7.73h1.47c0.41,0,0.75,0.34,0.75,0.75v4.19
				L167.82,71.04z"/>
		</g>
		<g>
			<path class="st2" d="M59.99,134.44c-0.02-0.06-0.05-0.13-0.07-0.2c-12.72,27.85-24.95,26.7-25.51,26.65c0,0-0.01,0-0.01,0
				c-2.48-0.02-4.71-0.95-4.75-0.96v10.9c17.72,3.68,30.83-12.38,36-23.91c-0.02-0.04-0.04-0.08-0.07-0.12
				C62.87,141.75,61.01,137.17,59.99,134.44z"/>
			<path class="st2" d="M67.32,48.2c0.75,5.36,1.23,10.67,1.48,15.86h0.15h10.36h0.15c-1.51-20.19-5.3-35.61-6.53-40.29
				c-0.03,0.09-0.06,0.18-0.08,0.28c-2.45,8.26-4.22,16.08-5.44,23.65C67.38,47.87,67.35,48.04,67.32,48.2z"/>
			<path class="st2" d="M68.95,78.2c-0.22,9.14-1.03,17.64-2.05,25.04c0.03,0.17,0.05,0.35,0.08,0.53
				c1.92,12.53,4.75,21.41,6.14,25.3c0.03,0.08,0.06,0.15,0.08,0.23c5.4-17.09,7.04-34.95,6.86-51.09h-0.15H69.1H68.95z"/>
			<path class="st2" d="M131.48,102.79c1.89,13.39,4.85,22.71,6.22,26.54c5.41-17.1,7.06-34.98,6.88-51.14h-11.12
				C133.25,87.15,132.47,95.49,131.48,102.79z"/>
			<path class="st2" d="M133.31,64.06h10.66c-1.5-20.13-5.28-35.68-6.52-40.4c-2.51,8.87-4.29,17.37-5.49,25.39
				C132.64,54.13,133.07,59.15,133.31,64.06z"/>
			<path class="st2" d="M100.82,160.11c-0.69,0.11-1.36,0.17-2.03,0.18c-0.69-0.01-1.37-0.07-2.03-0.18
				c-4.91-0.95-14.3-5.66-23.32-26.29c-0.03-0.07-0.06-0.14-0.09-0.2c-0.14-0.33-0.29-0.67-0.43-1.02
				c-0.11-0.26-0.22-0.52-0.33-0.78c-0.01-0.02-0.05-0.11-0.11-0.26c-0.02-0.06-0.05-0.13-0.09-0.22c-0.78-2-3.79-10.2-6.08-22.99
				c-0.03-0.15-0.05-0.3-0.08-0.45c-0.13-0.71-0.25-1.44-0.37-2.18c-0.14-0.88-0.28-1.78-0.42-2.7c-0.03-0.18-0.05-0.36-0.08-0.54
				c-1.01-7.07-1.74-15.24-1.8-24.3c0-0.25,0-0.5-0.01-0.75c0-0.25,0-0.5,0-0.75c0.01-3.58,0.11-7.3,0.35-11.14
				c0.02-0.25,0.03-0.5,0.05-0.75c0.02-0.25,0.03-0.5,0.05-0.75c0.35-4.94,0.91-10.07,1.72-15.37c0.03-0.17,0.05-0.34,0.08-0.51
				c0.13-0.82,0.27-1.65,0.41-2.47c0.12-0.72,0.25-1.44,0.38-2.16c0.03-0.14,0.05-0.29,0.08-0.43c1.21-6.53,2.81-13.15,4.9-20.1
				c0.02-0.05,0.03-0.1,0.04-0.15H61.43h-0.8h-0.29c-0.06,0.21-0.13,0.49-0.22,0.83c-0.02,0.09-0.05,0.17-0.07,0.27
				c-1.28,4.89-5,20.18-6.48,40.1c-0.02,0.25-0.04,0.5-0.06,0.75c-0.02,0.25-0.04,0.5-0.05,0.75c-0.24,3.59-0.41,7.31-0.48,11.14
				c0,0.25-0.01,0.5-0.01,0.75c0,0.25-0.01,0.5-0.01,0.75c-0.18,16.25,1.49,34.25,6.97,51.44c0.03,0.09,0.06,0.17,0.08,0.26
				c0.14,0.42,0.27,0.84,0.41,1.26c0.02,0.07,0.04,0.13,0.07,0.2c0.01,0.03,0.11,0.34,0.3,0.88c0.02,0.06,0.05,0.14,0.07,0.21
				c0.74,2.1,2.6,7.04,5.59,12.73c0.02,0.04,0.05,0.08,0.07,0.13c0.14,0.27,0.3,0.55,0.45,0.83c0.14,0.26,0.28,0.52,0.43,0.79
				c0.03,0.05,0.06,0.1,0.09,0.15c5.1,9.21,12.99,19.7,23.66,23.15c0.43,0.17,0.92,0.31,1.53,0.44c1.96,0.5,3.95,0.75,5.92,0.75
				l0.16-0.01l0.26,0.01c1.94,0,3.92-0.25,5.86-0.74c0.63-0.14,1.12-0.28,1.51-0.43c10.72-3.47,18.64-14.03,23.75-23.26
				c-2.81-5.24-4.7-9.97-5.7-12.72C115.02,155.21,104.86,159.33,100.82,160.11z"/>
		</g>
	</g>
	<g>
		<path class="st2" d="M163.23,160.89L163.23,160.89c-0.19,0.02-1.55,0.09-3.74-0.72c-4.44-1.69-8-5.05-9.99-7.35
			c-0.04-0.05-0.09-0.09-0.13-0.14c-0.08-0.09-0.17-0.19-0.25-0.28c-1.33-1.5-2.72-3.27-4.16-5.34c-2.48-3.69-4.84-8.14-7.12-13.39
			c-0.14-0.33-0.29-0.67-0.43-1.01c-0.11-0.26-0.22-0.51-0.33-0.78c0-0.01-0.04-0.1-0.11-0.26c-0.62-1.55-3.88-10.11-6.22-23.81
			c-0.12-0.73-0.24-1.47-0.36-2.23c-0.14-0.9-0.28-1.82-0.41-2.76c-0.09-0.64-0.18-1.28-0.26-1.94c-0.81-6.33-1.42-13.97-1.43-22.69
			c0-0.25,0-0.5,0-0.75c0-0.25,0-0.5,0-0.75c0.02-3.55,0.15-7.26,0.4-11.14c0.02-0.25,0.03-0.5,0.05-0.75
			c0.02-0.25,0.04-0.5,0.06-0.75c0.34-4.79,0.88-9.81,1.66-15.04c0.13-0.86,0.26-1.72,0.4-2.59c0.12-0.74,0.25-1.49,0.38-2.23
			c1.19-6.86,2.8-14.04,4.93-21.48h-11.29c-0.06,0.21-0.13,0.49-0.22,0.83c-1.21,4.57-5.04,20.22-6.55,40.52
			c-0.02,0.25-0.04,0.5-0.06,0.75c-0.02,0.25-0.04,0.5-0.05,0.75c-0.24,3.59-0.41,7.31-0.48,11.14c0,0.25-0.01,0.5-0.01,0.75
			c0,0.25-0.01,0.5-0.01,0.75c-0.18,16.33,1.5,34.43,7.06,51.69c0.14,0.42,0.27,0.84,0.41,1.26c0.02,0.07,0.04,0.14,0.07,0.2
			c0.01,0.02,0.11,0.33,0.3,0.88c0.69,1.99,2.6,7.16,5.71,13.09c0.14,0.27,0.29,0.55,0.44,0.83c0.14,0.26,0.28,0.52,0.43,0.79
			c0.82,1.5,1.72,3.03,2.69,4.56c0.39,0.61,0.8,1.23,1.22,1.86c6.87,10.31,17.99,20.85,32.18,17.47v-10.9
			C167.93,159.94,165.7,160.87,163.23,160.89z"/>
		<g>
			<path class="st3" d="M169.06,157.96c-0.37-0.15-0.71-0.09-1.08,0.1c-0.09,0.05-2.16,1.15-4.82,1.12
				c-0.62-0.04-3.25,0.15-8.05-3.31c-4.22-3.04-10.34-9.88-16.31-23.77c-0.08-0.18-0.16-0.36-0.23-0.55
				c5.92-17.79,7.71-36.51,7.52-53.36h8.03h0.68v5.15c0,0.3,0.18,0.57,0.45,0.69c0.1,0.04,0.2,0.06,0.3,0.06
				c0.18,0,0.37-0.07,0.51-0.2l13.39-12.32c0.16-0.14,0.24-0.34,0.24-0.55s-0.09-0.41-0.25-0.55l-13.39-12.12
				c-0.22-0.2-0.54-0.25-0.81-0.13s-0.45,0.39-0.45,0.69v5.15h-0.92h-8.4c-1.8-24.29-6.9-41.99-6.99-42.31
				c-0.09-0.32-0.39-0.54-0.72-0.54h-13.47c-0.33,0-0.63,0.22-0.72,0.54c-0.09,0.32-5.19,18.02-6.99,42.31H81.11
				c-1.8-24.31-6.9-41.88-7-42.2c-0.11-0.38-0.46-0.65-0.86-0.65H60.39c-0.73,0-1.05,0-1.33,0.69c-0.13,0.31-5.19,17.87-6.99,42.16
				H32.08c-0.41,0-0.75,0.34-0.75,0.75v12.64c0,0.41,0.34,0.75,0.75,0.75h19.38c-0.19,16.93,1.61,35.76,7.6,53.62
				c0,0.01,0.02,0.06,0.05,0.14c-5.99,14.01-12.3,21.13-16.58,24.13c-4.7,3.3-7.45,3.06-8.07,3.1c-2.66,0.03-4.73-1.08-4.82-1.12
				c-0.37-0.19-0.72-0.26-1.08-0.1c-0.32,0.13-0.53,0.47-0.57,0.8v12.55c0,0.34,0.18,0.67,0.49,0.8c3.48,1.54,21.7,4.11,35.89-19.76
				c0.75-1.27,1.53-2.49,2.22-3.71c0.09,0.15,0.17,0.3,0.26,0.46c4.78,8.32,12.79,18.98,23.77,22.53c0.46,0.18,1.02,0.34,1.68,0.49
				c2.06,0.52,4.16,0.79,6.29,0.79h0.01l0.13-0.01l0.23,0.01c2.1,0,4.21-0.26,6.25-0.78c0.68-0.15,1.24-0.32,1.66-0.48
				c11.01-3.57,19.02-14.23,23.81-22.55c0.11-0.18,0.2-0.36,0.31-0.55c0.1,0.17,0.2,0.34,0.3,0.52l-0.01,0.02
				c0.69,1.23,1.2,2.02,1.97,3.27c15,24.3,31.94,21.16,35.89,19.76c0.32-0.11,0.49-0.46,0.49-0.8v-12.55
				C169.59,158.42,169.38,158.09,169.06,157.96z M51.48,76.7H32.83V65.56h19.13C51.72,69.15,51.55,72.87,51.48,76.7z M137.71,129.33
				c-1.37-3.84-4.34-13.15-6.22-26.54c0.99-7.3,1.77-15.63,1.98-24.59h11.12C144.76,94.35,143.12,112.23,137.71,129.33z
				 M130.73,96.64c-0.56-5.4-0.94-11.58-0.95-18.44h0h2.19C131.82,84.73,131.36,90.93,130.73,96.64z M153.88,65.56h1.66
				c0.41,0,0.75-0.34,0.75-0.75V60.6l11.53,10.44l-11.53,10.6v-4.19c0-0.41-0.34-0.75-0.75-0.75h-1.47h-24.28h-0.01
				c0.02-3.54,0.15-7.26,0.4-11.14h0c-0.02,0.23-0.02,0.46-0.03,0.69l0.04-0.69H153.88z M130.29,64.06c0.21-2.91,0.5-5.92,0.86-9
				c0.3,3.03,0.52,6.03,0.66,9H130.29L130.29,64.06z M143.97,64.06h-10.66c-0.23-4.91-0.67-9.93-1.35-15
				c1.2-8.02,2.98-16.52,5.49-25.39C138.69,28.38,142.46,43.93,143.97,64.06z M68.95,78.2h11.12c0.18,16.14-1.46,34-6.86,51.09
				c-0.03-0.08-0.05-0.15-0.08-0.23c-1.39-3.88-4.22-12.77-6.14-25.3c-0.03-0.17-0.05-0.35-0.08-0.53
				C67.93,95.83,68.73,87.34,68.95,78.2z M66.06,96.71c-0.6-5.42-1.01-11.64-1.04-18.52h2.29C67.15,84.76,66.69,90.99,66.06,96.71z
				 M81.71,78.2h34.26c-0.19,16.93,1.61,35.76,7.6,53.62c0.02,0.06,0.06,0.19,0.12,0.36c-9.27,21.58-19.25,25.7-23.14,26.46
				c-0.59,0.09-1.2,0.15-1.77,0.16c-0.6-0.01-1.2-0.06-1.77-0.15c-4.71-0.91-13.9-5.64-22.85-26.93
				C80.11,113.88,81.9,95.09,81.71,78.2z M116.47,65.56c-0.24,3.59-0.41,7.31-0.48,11.14H65.02c0.01-3.55,0.13-7.27,0.38-11.14
				H116.47z M65.49,64.06c0.22-3.09,0.53-6.27,0.94-9.53c0.33,3.21,0.57,6.4,0.72,9.53H65.49z M72.92,23.77
				c1.23,4.67,5.03,20.1,6.53,40.29H68.8c-0.25-5.19-0.72-10.5-1.48-15.86c0.03-0.16,0.06-0.33,0.08-0.49
				c1.22-7.58,2.99-15.39,5.44-23.65C72.87,23.96,72.9,23.87,72.92,23.77z M29.64,170.82v-10.9c0.04,0.01,2.44,0.99,4.75,0.96h0.01
				c0.56,0.05,12.96,1.08,25.51-26.65c0.02,0.06,0.05,0.13,0.07,0.2c1.02,2.73,2.89,7.31,5.59,12.35c0.02,0.04,0.04,0.08,0.07,0.12
				C60.08,159.14,46.99,174.39,29.64,170.82z M106.37,170.24c-0.39,0.15-0.88,0.29-1.51,0.43c-1.94,0.49-3.93,0.74-5.86,0.74
				l-0.26-0.01l-0.16,0.01c-1.97,0-3.96-0.25-5.92-0.75c-0.61-0.14-1.1-0.28-1.53-0.44c-10.66-3.45-18.55-13.94-23.66-23.15
				c-0.03-0.05-0.06-0.1-0.09-0.15c-0.15-0.26-0.28-0.53-0.43-0.79c-0.15-0.28-0.3-0.56-0.45-0.83c-0.02-0.04-0.05-0.08-0.07-0.13
				c-2.99-5.7-4.85-10.63-5.59-12.73c-0.02-0.07-0.05-0.15-0.07-0.21c-0.19-0.54-0.29-0.84-0.3-0.88c-0.02-0.07-0.04-0.13-0.07-0.2
				c-0.14-0.42-0.27-0.84-0.41-1.26c-0.03-0.09-0.06-0.17-0.08-0.26c-5.49-17.19-7.16-35.19-6.97-51.44c0-0.25,0-0.5,0.01-0.75
				c0-0.25,0.01-0.5,0.01-0.75c0.07-3.83,0.24-7.55,0.48-11.14c0.02-0.25,0.03-0.5,0.05-0.75c0.02-0.25,0.04-0.5,0.06-0.75
				c1.49-19.92,5.2-35.21,6.48-40.1c0.02-0.09,0.05-0.18,0.07-0.27c0.09-0.33,0.16-0.61,0.22-0.83h11.28
				c-0.02,0.05-0.03,0.1-0.04,0.15c-2.09,6.96-3.69,13.57-4.9,20.1c-0.03,0.14-0.05,0.29-0.08,0.43c-0.13,0.72-0.26,1.44-0.38,2.16
				c-0.14,0.83-0.28,1.65-0.41,2.47c-0.03,0.17-0.05,0.34-0.08,0.51c-0.82,5.3-1.38,10.43-1.72,15.37c-0.02,0.25-0.03,0.5-0.05,0.75
				c-0.02,0.25-0.04,0.5-0.05,0.75c-0.24,3.84-0.35,7.55-0.35,11.14c0,0.25,0,0.5,0,0.75c0,0.25,0,0.5,0.01,0.75
				c0.06,9.06,0.78,17.22,1.8,24.3c0.03,0.18,0.05,0.36,0.08,0.54c0.13,0.92,0.27,1.82,0.42,2.7c0.12,0.74,0.24,1.46,0.37,2.18
				c0.03,0.15,0.05,0.3,0.08,0.45c2.29,12.79,5.31,21,6.08,22.99c0.03,0.08,0.06,0.16,0.09,0.22c0.06,0.15,0.1,0.24,0.11,0.26
				c0.11,0.27,0.22,0.52,0.33,0.78c0.14,0.34,0.29,0.68,0.43,1.02c0.03,0.07,0.06,0.14,0.09,0.2c9.02,20.63,18.42,25.34,23.32,26.29
				c0.66,0.11,1.34,0.17,2.03,0.18c0.67-0.01,1.35-0.07,2.03-0.18c4.05-0.79,14.21-4.9,23.6-25.86c1,2.75,2.9,7.48,5.7,12.72
				C125.01,156.21,117.09,166.76,106.37,170.24z M167.98,170.82c-17.52,4.18-29.27-12.87-33.41-19.32
				c-0.98-1.52-1.87-3.06-2.69-4.56c-0.15-0.26-0.29-0.53-0.43-0.79c-0.15-0.28-0.3-0.55-0.44-0.83c-3.11-5.93-5.02-11.1-5.71-13.09
				c-0.19-0.55-0.29-0.86-0.3-0.88c-0.02-0.07-0.04-0.14-0.07-0.2c-0.14-0.42-0.27-0.84-0.41-1.26
				c-5.55-17.26-7.24-35.36-7.06-51.69c0-0.25,0-0.5,0.01-0.75c0-0.25,0.01-0.5,0.01-0.75c0.07-3.83,0.24-7.55,0.48-11.14
				c0.02-0.25,0.03-0.5,0.05-0.75c0.02-0.25,0.04-0.5,0.06-0.75c1.52-20.3,5.34-35.94,6.55-40.52c0.09-0.33,0.16-0.62,0.22-0.83
				h11.29c-2.13,7.44-3.74,14.62-4.93,21.48c-0.13,0.75-0.26,1.49-0.38,2.23c-0.14,0.87-0.28,1.73-0.4,2.59
				c-0.78,5.22-1.31,10.24-1.66,15.04c-0.02,0.25-0.04,0.5-0.06,0.75c-0.02,0.25-0.03,0.5-0.05,0.75c-0.25,3.87-0.37,7.59-0.4,11.14
				c0,0.25,0,0.5,0,0.75c0,0.25,0,0.5,0,0.75c0.01,8.72,0.62,16.36,1.43,22.69c0.08,0.66,0.17,1.3,0.26,1.94
				c0.13,0.94,0.27,1.86,0.41,2.76c0.12,0.76,0.24,1.5,0.36,2.23c2.34,13.7,5.6,22.26,6.22,23.81c0.06,0.16,0.1,0.25,0.11,0.26
				c0.11,0.27,0.22,0.52,0.33,0.78c0.14,0.34,0.29,0.68,0.43,1.01c3.46,7.99,7.13,14.12,11.1,18.52c7.76,8.94,13.9,8.73,14.29,8.7
				h0.01c2.31,0.02,4.71-0.95,4.75-0.96V170.82z"/>
		</g>
	</g>
</g>
</svg>
