<?xml version="1.0" encoding="utf-8"?>
<!-- Generator: Adobe Illustrator 27.4.0, SVG Export Plug-In . SVG Version: 6.00 Build 0)  -->
<svg version="1.1" id="Layer_1" xmlns="http://www.w3.org/2000/svg" xmlns:xlink="http://www.w3.org/1999/xlink" x="0px" y="0px"
	 viewBox="0 0 510.24 198.43" style="enable-background:new 0 0 510.24 198.43;" xml:space="preserve">
<style type="text/css">
	.st0{fill:none;}
	.st1{fill:#9966FF;}
	.st2{fill:#0066FF;}
	.st3{fill:#1D1D1B;}
</style>
<g>
	<path class="st0" d="M430.13,78.27H140.75c0.19,16.85-1.6,35.57-7.52,53.36c5.31,12.7,11.04,20.83,17.52,24.83
		c13.96,7.7,29.05-5.9,31.26-8.66c-0.03-1.1-0.13-5.39,0.26-9.9c1.39-16.13,6.89-27.39,18.37-37.66c4.21-3.76,12.37-8.18,17.8-8.75
		c4.36-0.46,7.48,0.22,9.55,2.09c1.96,1.77,2.92,4.56,2.92,8.55c0,4.94-1.79,11.78-4.79,18.31c-3.98,8.67-10.01,16.77-17.44,23.41
		l-0.43,0.39c-1.92,1.72-5.4,4.84-8.67,7.36c3.81,5.53,9.6,8.23,17.68,8.24l0.29,0c6.24,0.09,21.79-0.94,32.36-12.09
		c-0.46-26.75,8.68-38.64,18.63-47.5c4.21-3.75,11.57-8.08,17.79-8.75c4.43-0.47,7.59,0.21,9.66,2.1c1.95,1.78,2.87,4.57,2.81,8.55
		c-0.12,8.14-4.94,26.09-22.23,41.7c-0.58,0.53-1.18,1.08-1.79,1.65c-2.18,2.02-4.63,4.28-7.28,6.13c6.93,9.6,15.25,8.69,23.21,6.25
		c10.58-3.25,26.67-16.18,35.88-28.83c0.11-0.14,10.09-13.27,15.96-25.93c1.25-2.7,2.2-4.96,3.11-7.15
		c0.69-1.66,1.34-3.23,2.07-4.82c0.12-0.27,0.39-0.44,0.68-0.44h13.2c0.25,0,0.49,0.13,0.63,0.34s0.16,0.48,0.06,0.71
		c-1.05,2.39-3.82,8.27-6.75,14.49c-1.48,3.14-2.99,6.35-4.33,9.21c6.7-5.8,19.71-15.05,36.36-17.18
		c8.04-1.03,12.42,1.56,14.68,3.91c2.47,2.58,2.99,5.39,3.01,5.51c1.12,5.28-0.35,12.99-4.37,22.9c-0.88,2.17-1.6,3.92-2.25,5.47
		c-1.56,3.77-2.68,6.5-4.59,11.64c-1.61,4.34-1.78,7.52-0.53,9.45c0.77,1.18,2.11,1.9,4,2.18c0.31,0.03,0.61,0.07,0.95,0.1
		c0,0,0.01,0,0.01,0c0.11,0,1.97,0.01,4.92-0.66c1.96-0.46,4.46-1.26,7.4-2.58c7.91-3.73,18.04-11.78,25.45-29.1
		C431.46,110.67,429.97,93.69,430.13,78.27z"/>
	<path class="st0" d="M125.82,55.13c-0.37,3.08-0.65,6.08-0.86,9h1.52C126.34,61.17,126.12,58.16,125.82,55.13z"/>
	<path class="st0" d="M444.66,94.94c0.72-5.03,1.3-10.63,1.57-16.68h-2.36C443.88,84.26,444.18,89.84,444.66,94.94z"/>
	<path class="st0" d="M262.75,138.38c6.73-5.29,17.49-17.02,21.83-32.78C273.21,110.61,264.82,123.2,262.75,138.38z"/>
	<path class="st0" d="M110.64,78.27H76.39c0.19,16.9-1.6,35.68-7.56,53.52c8.95,21.29,18.15,26.02,22.85,26.93
		c0.57,0.09,1.17,0.14,1.77,0.15c0.57-0.01,1.18-0.06,1.77-0.16c3.89-0.76,13.87-4.88,23.14-26.46c-0.06-0.17-0.1-0.3-0.12-0.36
		C112.25,114.02,110.45,95.2,110.64,78.27z"/>
	<path class="st0" d="M124.46,78.27c0.01,6.86,0.39,13.05,0.95,18.44c0.62-5.7,1.08-11.91,1.24-18.44H124.46z"/>
	<path class="st0" d="M444.38,64.13h1.88c-0.14-3.47-0.41-7.04-0.81-10.68C444.98,57.11,444.63,60.67,444.38,64.13z"/>
	<path class="st0" d="M59.69,78.27c0.03,6.88,0.45,13.1,1.04,18.52c0.63-5.72,1.09-11.95,1.25-18.52H59.69z"/>
	<path class="st0" d="M194.85,138.46c6.58-4.92,18.07-17.95,21.88-32.88C205.3,110.63,196.89,123.27,194.85,138.46z"/>
	<path class="st0" d="M61.1,54.6c-0.4,3.26-0.72,6.45-0.94,9.53h1.66C61.67,60.99,61.43,57.81,61.1,54.6z"/>
	<g>
		<path class="st1" d="M27.5,76.77h18.65c0.07-3.83,0.24-7.55,0.48-11.14H27.5V76.77z"/>
		<path class="st1" d="M75.73,65.63h-0.69h-0.8h-0.15h-10.4h-0.15h-0.7h-0.79h-0.15h-1.82c-0.25,3.87-0.37,7.59-0.38,11.14h2.33
			h0.15h0.8h0.69h0.15h10.76h0.15h0.8h0.69h0.15h34.3c0.07-3.83,0.24-7.55,0.48-11.14H75.88H75.73z"/>
		<path class="st1" d="M481.9,71.11l-11.53-10.44v4.21c0,0.41-0.34,0.75-0.75,0.75h-9.33h-0.69h-0.81h-10.98h-0.7h-0.79h-2.04
			c-0.25,3.85-0.38,7.56-0.4,11.14h2.42h0.81h0.69h11.13h0.8h0.7h9.2c0.41,0,0.75,0.34,0.75,0.75v4.19L481.9,71.11z"/>
		<path class="st1" d="M139.56,65.63h-0.81h-10.7h-0.7h-0.79h-1.69c-0.25,3.87-0.38,7.59-0.4,11.14h2.22h0.8h0.69h11.06h0.8h0.69
			h289.42c0.07-3.83,0.23-7.55,0.47-11.14H140.25H139.56z"/>
	</g>
	<g>
		<path class="st2" d="M54.66,134.51c-0.02-0.06-0.05-0.13-0.07-0.2c-12.72,27.85-24.95,26.7-25.51,26.65c0,0-0.01,0-0.01,0
			c-2.48-0.02-4.71-0.95-4.75-0.96v10.9c17.72,3.68,30.83-12.38,36-23.91c-0.02-0.04-0.04-0.08-0.07-0.12
			C57.55,141.82,55.68,137.24,54.66,134.51z"/>
		<path class="st2" d="M61.99,48.27c0.75,5.36,1.23,10.67,1.48,15.86h0.15h10.36h0.15c-1.51-20.19-5.3-35.61-6.53-40.29
			c-0.03,0.09-0.06,0.18-0.08,0.28c-2.45,8.26-4.22,16.08-5.44,23.65C62.05,47.94,62.02,48.11,61.99,48.27z"/>
		<path class="st2" d="M63.63,78.27c-0.22,9.14-1.03,17.64-2.05,25.04c0.03,0.17,0.05,0.35,0.08,0.53
			c1.92,12.53,4.75,21.41,6.14,25.3c0.03,0.08,0.06,0.15,0.08,0.23c5.4-17.09,7.04-34.95,6.86-51.09h-0.15H63.78H63.63z"/>
		<path class="st2" d="M126.15,102.86c1.89,13.39,4.85,22.71,6.22,26.54c5.41-17.1,7.06-34.98,6.88-51.14h-11.12
			C127.92,87.22,127.14,95.56,126.15,102.86z"/>
		<path class="st2" d="M127.98,64.13h10.66c-1.5-20.13-5.28-35.68-6.52-40.4c-2.51,8.87-4.29,17.37-5.49,25.39
			C127.31,54.2,127.75,59.22,127.98,64.13z"/>
		<path class="st2" d="M95.49,160.19c-0.69,0.11-1.36,0.17-2.03,0.18c-0.69-0.01-1.37-0.07-2.03-0.18
			c-4.91-0.95-14.3-5.66-23.32-26.29c-0.03-0.07-0.06-0.14-0.09-0.2c-0.14-0.33-0.29-0.67-0.43-1.02c-0.11-0.26-0.22-0.52-0.33-0.78
			c-0.01-0.02-0.05-0.11-0.11-0.26c-0.02-0.06-0.05-0.13-0.09-0.22c-0.78-2-3.79-10.2-6.08-22.99c-0.03-0.15-0.05-0.3-0.08-0.45
			c-0.13-0.71-0.25-1.44-0.37-2.18c-0.14-0.88-0.28-1.78-0.42-2.7c-0.03-0.18-0.05-0.36-0.08-0.54c-1.01-7.07-1.74-15.24-1.8-24.3
			c0-0.25,0-0.5-0.01-0.75c0-0.25,0-0.5,0-0.75c0.01-3.58,0.11-7.3,0.35-11.14c0.02-0.25,0.03-0.5,0.05-0.75
			c0.02-0.25,0.03-0.5,0.05-0.75c0.35-4.94,0.91-10.07,1.72-15.37c0.03-0.17,0.05-0.34,0.08-0.51c0.13-0.82,0.27-1.65,0.41-2.47
			c0.12-0.72,0.25-1.44,0.38-2.16c0.03-0.14,0.05-0.29,0.08-0.43c1.21-6.53,2.81-13.15,4.9-20.1c0.02-0.05,0.03-0.1,0.04-0.15H56.11
			h-0.8h-0.29c-0.06,0.21-0.13,0.49-0.22,0.83c-0.02,0.09-0.05,0.17-0.07,0.27c-1.28,4.89-5,20.18-6.48,40.1
			c-0.02,0.25-0.04,0.5-0.06,0.75c-0.02,0.25-0.04,0.5-0.05,0.75c-0.24,3.59-0.41,7.31-0.48,11.14c0,0.25-0.01,0.5-0.01,0.75
			c0,0.25-0.01,0.5-0.01,0.75c-0.18,16.25,1.49,34.25,6.97,51.44c0.03,0.09,0.06,0.17,0.08,0.26c0.14,0.42,0.27,0.84,0.41,1.26
			c0.02,0.07,0.04,0.13,0.07,0.2c0.01,0.03,0.11,0.34,0.3,0.88c0.02,0.06,0.05,0.14,0.07,0.21c0.74,2.1,2.6,7.04,5.59,12.73
			c0.02,0.04,0.05,0.08,0.07,0.13c0.14,0.27,0.3,0.55,0.45,0.83c0.14,0.26,0.28,0.52,0.43,0.79c0.03,0.05,0.06,0.1,0.09,0.15
			c5.1,9.21,12.99,19.7,23.66,23.15c0.43,0.17,0.92,0.31,1.53,0.44c1.96,0.5,3.95,0.75,5.92,0.75l0.16-0.01l0.26,0.01
			c1.94,0,3.92-0.25,5.86-0.74c0.63-0.14,1.12-0.28,1.51-0.43c10.72-3.47,18.64-14.03,23.75-23.26c-2.81-5.24-4.7-9.97-5.7-12.72
			C109.69,155.28,99.54,159.4,95.49,160.19z"/>
		<path class="st2" d="M445.28,100.54c1.39,10.91,3.53,19.26,5.15,24.5c0.66-2.11,0.96-3.4,0.97-3.48
			c5.04-15.02,7.09-29.85,7.49-43.29h-11.16C447.36,86.65,446.4,94.18,445.28,100.54z"/>
		<path class="st2" d="M447.76,64.13h10.96c-1.12-21.38-5.8-37.15-7.01-40.92c-2.45,8.6-4.23,16.84-5.46,24.67
			C447.07,53.47,447.55,58.91,447.76,64.13z"/>
		<path class="st2" d="M436.92,129.26c-4.44,9.8-11.53,20.52-22.58,26.83c-0.59,0.33-1.18,0.63-1.77,0.92
			c-4.65,2.23-8.3,3.19-10.74,3.6c0.18-0.03,0.39-0.07,0.59-0.1c-0.21,0.04-0.4,0.07-0.59,0.1c-2.02,0.34-3.2,0.31-3.41,0.3
			c-0.01,0-0.02,0-0.03,0c0,0-0.01,0-0.01,0c-0.4-0.02-0.78-0.07-1.15-0.12c-1.57-0.24-2.85-0.76-3.82-1.57
			c-0.44-0.36-0.82-0.78-1.13-1.26c-0.01-0.01-0.01-0.03-0.02-0.04c-1.51-2.35-1.37-5.96,0.4-10.74c1.91-5.16,3.04-7.9,4.61-11.69
			c0.64-1.55,1.36-3.3,2.24-5.47c3.91-9.63,5.36-17.05,4.29-22.05c-0.08-0.43-1.99-10.02-16.03-8.22
			c-18.93,2.42-33.08,14.3-38.29,19.29c-0.26,0.25-0.66,0.28-0.96,0.07c-0.29-0.21-0.4-0.6-0.25-0.93
			c1.64-3.53,3.81-8.13,5.91-12.59c2.56-5.43,5-10.61,6.26-13.4h-11.56c-0.63,1.42-1.23,2.84-1.85,4.33
			c-0.92,2.2-1.86,4.48-3.13,7.2c-5.95,12.81-16.02,26.06-16.12,26.19c-9.52,13.08-25.62,25.98-36.64,29.37
			c-8.26,2.54-17.73,3.64-25.32-7.45c-0.11-0.17-0.16-0.37-0.12-0.57c0.04-0.2,0.16-0.37,0.32-0.48c2.79-1.85,5.41-4.27,7.72-6.41
			c0.62-0.57,1.22-1.13,1.81-1.66c16.91-15.26,21.61-32.71,21.73-40.61c0.05-3.52-0.71-5.95-2.32-7.42
			c-1.74-1.58-4.52-2.15-8.49-1.72c-5.63,0.6-12.79,4.67-16.96,8.38c-9.72,8.66-18.65,20.31-18.12,46.66c0,0.19-0.07,0.38-0.2,0.53
			c-10.99,11.8-27.21,12.88-33.69,12.79l-0.27,0c-8.78-0.01-15.28-3.21-19.32-9.5c-0.21-0.33-0.13-0.77,0.18-1
			c3.38-2.55,7.13-5.91,9.14-7.71l0.43-0.39c15.94-14.25,21.73-32.08,21.73-40.6c0-3.54-0.79-5.97-2.42-7.44
			c-1.74-1.56-4.48-2.12-8.39-1.71c-5.14,0.54-12.92,4.77-16.95,8.38c-14.05,12.55-16.92,25.58-17.88,36.67
			c-0.44,5.11-0.25,9.93-0.25,9.98c0.01,0.17-0.04,0.33-0.14,0.46c-1.75,2.49-17.87,17.86-33.39,9.29
			c-6.51-4.02-12.23-11.88-17.49-24c-0.14-0.33-0.29-0.67-0.43-1.01c-0.11-0.26-0.22-0.51-0.33-0.78c0-0.01-0.04-0.1-0.11-0.26
			c-0.62-1.55-3.88-10.11-6.22-23.81c-0.12-0.73-0.24-1.47-0.36-2.23c-0.14-0.9-0.28-1.82-0.41-2.76c-0.09-0.64-0.18-1.28-0.26-1.94
			c-0.81-6.33-1.42-13.97-1.43-22.69c0-0.25,0-0.5,0-0.75c0-0.25,0-0.5,0-0.75c0.02-3.55,0.15-7.26,0.4-11.14
			c0.02-0.25,0.03-0.5,0.05-0.75c0.02-0.25,0.04-0.5,0.06-0.75c0.34-4.79,0.88-9.81,1.66-15.04c0.13-0.86,0.26-1.72,0.4-2.59
			c0.12-0.74,0.25-1.49,0.38-2.23c1.19-6.86,2.8-14.04,4.93-21.48h-10.2h-0.8h-0.29c-0.06,0.21-0.13,0.49-0.22,0.83
			c-1.21,4.57-5.04,20.22-6.55,40.52c-0.02,0.25-0.04,0.5-0.06,0.75c-0.02,0.25-0.04,0.5-0.05,0.75c-0.24,3.59-0.41,7.31-0.48,11.14
			c0,0.25-0.01,0.5-0.01,0.75c0,0.25-0.01,0.5-0.01,0.75c-0.18,16.33,1.5,34.43,7.06,51.69c0.14,0.42,0.27,0.84,0.41,1.26
			c0.02,0.07,0.04,0.14,0.07,0.2c0.01,0.02,0.11,0.33,0.3,0.88c0.69,1.99,2.6,7.16,5.71,13.09c0.14,0.27,0.29,0.55,0.44,0.83
			c0.14,0.26,0.28,0.52,0.43,0.79c0.82,1.5,1.72,3.03,2.69,4.56c5.77,9.08,15.41,19.91,28.52,19.91
			c0.21,0.01,16.69,0.78,30.95-12.24c0.15-0.14,0.35-0.21,0.57-0.19c0.21,0.02,0.4,0.12,0.53,0.28
			c7.02,8.88,14.98,12.19,29.36,12.19c8.87,0,22.42-1.28,37.49-12.33c0.17-0.12,0.38-0.17,0.58-0.13s0.38,0.16,0.49,0.33
			c7.68,12.06,20.49,15.24,38.07,9.46c7.08-2.33,14.22-6.43,23.85-13.7c0.28-0.21,0.66-0.2,0.93,0.02c0.27,0.22,0.35,0.59,0.2,0.91
			c0,0-2.58,5.33-3.44,7.2c-0.56,1.2-1.49,2.95-2.57,4.97c-0.57,1.06-1.16,2.18-1.75,3.29l12.47-0.02c0.36-0.66,0.97-2.03,1.71-3.68
			c2.71-6.02,7.74-17.22,14.46-26.19c9.19-12.26,33.5-30.24,45.62-30.24c0.7,0,1.37,0.06,1.98,0.19c1.02,0.21,1.8,0.78,2.26,1.65
			c1.45,2.73-0.34,7.86-2.07,12.02c-2.47,5.96-3.46,8.52-4.97,12.4c-0.86,2.21-1.88,4.83-3.42,8.73
			c-1.71,4.31-2.75,11.27-1.57,14.75c1.41,4.17,4.38,7.16,8.54,8.88c0.25,0.1,0.49,0.21,0.74,0.3c4.72,1.72,10.85,1.89,17.99,0.34
			c0.43-0.09,0.84-0.18,1.22-0.27c0.39-0.09,0.74-0.17,1.08-0.25c1.99-0.47,3.07-0.79,3.6-0.97l0-0.06
			c-0.19,0.06-0.39,0.12-0.58,0.18c0.69-0.22,1.4-0.45,2.08-0.7v0c0.02-0.01,0.03-0.01,0.05-0.02c0.13-0.05,0.26-0.09,0.38-0.14
			v-0.01c13.21-5.04,22.09-15.43,27.8-25.17c-3.08-6.38-4.6-11.3-4.64-11.44C437.46,130.97,437.19,130.12,436.92,129.26z
			 M193.91,140.78c-0.14,0-0.27-0.04-0.39-0.11c-0.25-0.15-0.38-0.43-0.35-0.72c1.76-17.08,11.32-31.33,24.36-36.32
			c0.26-0.1,0.55-0.05,0.76,0.13c0.21,0.18,0.3,0.46,0.24,0.73c-3.75,17.03-17.62,31.96-24.22,36.17
			C194.19,140.74,194.05,140.78,193.91,140.78z M262.23,140.64c-0.13,0.09-0.28,0.14-0.44,0.14c-0.13,0-0.26-0.03-0.38-0.1
			c-0.25-0.15-0.4-0.43-0.37-0.73c1.77-17.12,11.33-31.38,24.37-36.32c0.26-0.1,0.55-0.05,0.76,0.14c0.21,0.18,0.3,0.47,0.23,0.74
			C281.96,122.58,269.12,135.72,262.23,140.64z M410.44,169.8c0.45-0.12,0.93-0.27,1.43-0.42
			C411.4,169.52,410.93,169.66,410.44,169.8z"/>
	</g>
	<g>
		<path class="st3" d="M218.52,104.5c0.06-0.27-0.03-0.55-0.24-0.73c-0.21-0.18-0.5-0.23-0.76-0.13
			c-13.04,4.99-22.6,19.24-24.36,36.32c-0.03,0.29,0.11,0.56,0.35,0.72c0.12,0.07,0.26,0.11,0.39,0.11c0.14,0,0.28-0.04,0.4-0.12
			C200.9,136.45,214.77,121.52,218.52,104.5z M194.85,138.46c2.05-15.2,10.46-27.83,21.88-32.88
			C212.91,120.51,201.43,133.55,194.85,138.46z"/>
		<path class="st3" d="M286.41,104.51c0.07-0.27-0.02-0.56-0.23-0.74c-0.21-0.19-0.5-0.24-0.76-0.14
			c-13.03,4.95-22.6,19.21-24.37,36.32c-0.03,0.29,0.11,0.58,0.37,0.73c0.12,0.07,0.25,0.1,0.38,0.1c0.15,0,0.31-0.05,0.44-0.14
			C269.12,135.72,281.96,122.58,286.41,104.51z M262.75,138.38c2.07-15.18,10.46-27.76,21.83-32.78
			C280.24,121.36,269.48,133.08,262.75,138.38z"/>
	</g>
</g>
<g>
	<path class="st2" d="M474.84,159.87c-5.65-1.44-15.73-6.92-23.6-28c-0.02-0.05-0.33-0.78-0.83-2.14c-0.12-0.32-0.24-0.68-0.38-1.06
		c-0.13-0.37-0.26-0.77-0.41-1.2c-1.46-4.43-3.63-12.08-5.22-22.37c-0.1-0.67-0.21-1.36-0.3-2.06c-0.12-0.83-0.23-1.68-0.34-2.54
		c-0.83-6.55-1.38-14-1.39-22.23c0-0.25,0-0.5,0-0.75s0-0.5,0-0.75c0.02-3.57,0.15-7.29,0.4-11.14c0.02-0.25,0.03-0.5,0.05-0.75
		c0.02-0.25,0.03-0.5,0.05-0.75c0.38-5.19,0.98-10.62,1.86-16.26c0.13-0.81,0.26-1.63,0.4-2.45c0.12-0.71,0.24-1.42,0.37-2.14
		c1.18-6.56,2.73-13.38,4.74-20.44c0.01-0.02,0.01-0.04,0.01-0.05H439.5h-0.53c-0.03,0.12-0.07,0.27-0.12,0.43
		c-1.07,3.99-5.08,19.97-6.63,40.92c-0.02,0.25-0.04,0.5-0.05,0.75c-0.02,0.25-0.04,0.5-0.05,0.75c-0.24,3.59-0.41,7.31-0.47,11.14
		c0,0.25-0.01,0.5-0.01,0.75c0,0.25,0,0.5-0.01,0.75c-0.15,14.72,1.21,30.88,5.56,46.57c0.11,0.39,0.22,0.78,0.33,1.18
		c0.11,0.38,0.22,0.76,0.33,1.14c0.42,1.41,0.86,2.82,1.33,4.22c0.04,0.14,1.39,4.51,4.11,10.31c0.14,0.3,0.29,0.61,0.44,0.92
		c0.12,0.24,0.23,0.48,0.35,0.73c4.75,9.66,13.02,22.33,25.05,26.65c0,0,0,0,0,0c0.04,0.01,0.08,0.02,0.12,0.03
		c2.67,0.94,5.51,1.48,8.55,1.48c0.09,0,0.18,0,0.27,0c2.81,0.1,5.31-0.16,7.15-0.61v-11.06C485.18,159.85,480,161.11,474.84,159.87
		z"/>
	<path class="st3" d="M486.35,158.08c-0.37-0.15-0.63-0.07-1.13,0.05c-0.1,0.02-5.47,1.34-9.97,0.17
		c-5.22-1.36-15.09-6.67-22.62-26.99c-0.03-0.07-0.59-1.4-1.42-3.84c1.12-3.32,1.61-5.43,1.63-5.52
		c5.09-15.16,7.15-30.13,7.55-43.69h8.48v5.15c0,0.3,0.18,0.57,0.45,0.69c0.1,0.04,0.2,0.06,0.3,0.06c0.18,0,0.37-0.07,0.51-0.2
		l13.39-12.32c0.16-0.14,0.24-0.34,0.24-0.55s-0.09-0.41-0.25-0.55l-13.39-12.12c-0.22-0.2-0.54-0.25-0.81-0.13
		s-0.45,0.39-0.45,0.69v5.15h-8.65c-1.28-24.68-7.28-42-7.39-42.29c-0.11-0.3-0.35-0.55-0.85-0.55H438.4
		c-0.33,0-0.63,0.22-0.72,0.54c-0.09,0.32-5.17,18.02-6.96,42.31H140.14c-1.8-24.29-6.9-41.99-6.99-42.31
		c-0.09-0.32-0.39-0.54-0.72-0.54h-13.47c-0.33,0-0.63,0.22-0.72,0.54c-0.09,0.32-5.19,18.02-6.99,42.31H75.78
		c-1.8-24.31-6.9-41.88-7-42.2c-0.11-0.38-0.46-0.65-0.86-0.65H55.06c-0.73,0-1.05,0-1.33,0.69c-0.13,0.31-5.19,17.87-6.99,42.16
		H26.75c-0.41,0-0.75,0.34-0.75,0.75v12.64c0,0.41,0.34,0.75,0.75,0.75h19.38c-0.19,16.93,1.61,35.76,7.6,53.62
		c0,0.01,0.02,0.06,0.05,0.14c-5.99,14.01-12.3,21.13-16.58,24.13c-4.7,3.3-7.45,3.06-8.07,3.1c-2.66,0.03-4.73-1.08-4.82-1.12
		c-0.37-0.19-0.72-0.26-1.08-0.1c-0.32,0.13-0.53,0.47-0.57,0.8v12.55c0,0.34,0.18,0.67,0.49,0.8c3.48,1.54,21.7,4.11,35.89-19.76
		c0.75-1.27,1.53-2.49,2.22-3.71c0.09,0.15,0.17,0.3,0.26,0.46c4.78,8.32,12.79,18.98,23.77,22.53c0.46,0.18,1.02,0.34,1.68,0.49
		c2.06,0.52,4.16,0.79,6.29,0.79h0.01l0.13-0.01l0.23,0.01c2.1,0,4.21-0.26,6.25-0.78c0.68-0.15,1.24-0.32,1.66-0.48
		c11.01-3.57,19.02-14.23,23.81-22.55c0.11-0.18,0.2-0.36,0.31-0.55c6.4,11.38,16.99,24.36,32.06,24.36
		c0.17,0.01,16.81,0.81,31.41-12.1c7.23,8.83,15.47,12.13,30.04,12.13c8.96,0,22.56-1.27,37.74-12.15
		c8.13,12.17,21.37,15.33,39.37,9.41c6.63-2.18,13.27-5.85,21.84-12.11c-0.77,1.61-1.68,3.51-2.13,4.48
		c-0.54,1.16-1.51,2.97-2.53,4.89c-0.76,1.42-1.57,2.94-2.32,4.41c-0.12,0.23-0.11,0.51,0.03,0.73s0.38,0.36,0.64,0.36h0l14.13-0.02
		c0.24,0,0.47-0.12,0.61-0.32c0.38-0.54,1.01-1.94,2.04-4.24c2.68-5.96,7.67-17.06,14.3-25.91c9.28-12.39,35.57-31.62,46.1-29.48
		c0.59,0.12,0.98,0.4,1.24,0.89c1.3,2.46-1.28,8.7-2.13,10.75c-2.48,5.98-3.47,8.54-4.98,12.43c-0.86,2.21-1.87,4.82-3.42,8.72
		c-1.8,4.54-2.92,11.87-1.59,15.79c2.56,7.54,9.57,11.61,19.45,11.61c2.95,0,6.15-0.36,9.56-1.1c0.31-0.07,0.61-0.13,0.89-0.2
		c1.06-0.24,1.92-0.47,2.65-0.63c3.16-0.67,20.98-6.1,32.55-26.46c4.85,9.59,13.02,21.71,24.8,26.28c0,0-0.01,0.01-0.01,0.01
		c0.18,0.07,0.37,0.13,0.56,0.2c0.08,0.03,0.16,0.06,0.24,0.09c0.39,0.14,0.79,0.27,1.19,0.39c0.1,0.03,0.2,0.06,0.3,0.09
		c0.29,0.08,0.58,0.16,0.87,0.23c0.31,0.08,0.61,0.15,0.93,0.22c0.07,0.02,0.14,0.03,0.21,0.04c0.84,0.18,1.69,0.32,2.57,0.42
		c5.24,0.64,10.1,0,11.55-0.65c0.31-0.14,0.49-0.46,0.49-0.8v-12.55C486.87,158.51,486.61,158.19,486.35,158.08z M46.15,76.77H27.5
		V65.63h19.13C46.39,69.22,46.22,72.94,46.15,76.77z M451.4,121.55c-0.02,0.08-0.32,1.37-0.97,3.48c-1.61-5.23-3.76-13.59-5.15-24.5
		c1.12-6.35,2.08-13.89,2.45-22.27h11.16C458.49,91.7,456.43,106.53,451.4,121.55z M444.66,94.94c-0.48-5.11-0.78-10.68-0.79-16.68
		h2.36C445.96,84.32,445.38,89.92,444.66,94.94z M469.62,65.63c0.41,0,0.75-0.34,0.75-0.75v-4.21l11.53,10.44l-11.53,10.6v-4.19
		c0-0.41-0.34-0.75-0.75-0.75h-25.75c0.02-3.57,0.15-7.29,0.4-11.14H469.62z M444.38,64.13c0.25-3.46,0.61-7.02,1.08-10.68
		c0.4,3.64,0.66,7.21,0.81,10.68H444.38z M458.72,64.13h-10.96c-0.21-5.22-0.69-10.66-1.51-16.25c1.23-7.83,3.01-16.08,5.46-24.67
		C452.92,26.98,457.6,42.75,458.72,64.13z M405.26,107.68c-0.02-0.12-0.54-2.94-3.01-5.51c-2.26-2.35-6.63-4.93-14.68-3.91
		c-16.65,2.13-29.66,11.38-36.36,17.18c1.34-2.86,2.85-6.07,4.33-9.21c2.93-6.22,5.7-12.1,6.75-14.49c0.1-0.23,0.08-0.5-0.06-0.71
		s-0.38-0.34-0.63-0.34h-13.2c-0.29,0-0.56,0.17-0.68,0.44c-0.72,1.59-1.38,3.16-2.07,4.82c-0.91,2.19-1.85,4.45-3.11,7.15
		c-5.88,12.66-15.85,25.78-15.96,25.93c-9.21,12.65-25.3,25.58-35.88,28.83c-7.96,2.44-16.27,3.36-23.21-6.25
		c2.65-1.84,5.1-4.11,7.28-6.13c0.61-0.57,1.21-1.12,1.79-1.65c17.29-15.61,22.1-33.56,22.23-41.7c0.06-3.97-0.86-6.77-2.81-8.55
		c-2.07-1.89-5.23-2.58-9.66-2.1c-6.22,0.67-13.59,5-17.79,8.75c-9.95,8.87-19.09,20.76-18.63,47.5
		c-10.57,11.15-26.12,12.18-32.36,12.09l-0.29,0c-8.08-0.01-13.87-2.7-17.68-8.24c3.27-2.52,6.75-5.64,8.67-7.36l0.43-0.39
		c7.43-6.64,13.46-14.73,17.44-23.41c3-6.53,4.79-13.37,4.79-18.31c0-3.99-0.95-6.78-2.92-8.55c-2.07-1.86-5.19-2.54-9.55-2.09
		c-5.43,0.57-13.59,4.99-17.8,8.75c-11.48,10.27-16.98,21.53-18.37,37.66c-0.39,4.51-0.29,8.8-0.26,9.9
		c-2.21,2.77-17.3,16.37-31.26,8.66c-6.48-4-12.21-12.12-17.52-24.83c5.92-17.79,7.71-36.51,7.52-53.36h289.38
		c-0.16,15.42,1.33,32.41,6.13,48.81c-7.41,17.32-17.55,25.36-25.45,29.1c-2.94,1.32-5.44,2.12-7.4,2.58
		c-2.95,0.67-4.81,0.66-4.92,0.66c0,0-0.01,0-0.01,0c-0.33-0.03-0.64-0.06-0.95-0.1c-1.89-0.27-3.23-1-4-2.18
		c-1.26-1.93-1.08-5.11,0.53-9.45c1.9-5.14,3.03-7.86,4.59-11.64c0.64-1.56,1.36-3.3,2.25-5.47
		C404.91,120.67,406.38,112.96,405.26,107.68z M128.14,78.27h11.12c0.18,16.15-1.46,34.04-6.88,51.14
		c-1.37-3.84-4.34-13.15-6.22-26.54C127.14,95.56,127.92,87.22,128.14,78.27z M125.4,96.71c-0.56-5.4-0.94-11.58-0.95-18.44h2.19
		C126.49,84.8,126.03,91.01,125.4,96.71z M430.62,65.63c-0.24,3.59-0.41,7.31-0.47,11.14H124.46c0.02-3.54,0.15-7.26,0.4-11.14
		H430.62z M124.96,64.13c0.21-2.91,0.5-5.92,0.86-9c0.3,3.03,0.52,6.03,0.66,9H124.96z M138.64,64.13h-10.66
		c-0.23-4.91-0.67-9.93-1.35-15c1.2-8.02,2.98-16.52,5.49-25.39C133.36,28.45,137.14,44,138.64,64.13z M63.63,78.27h11.12
		c0.18,16.14-1.46,34-6.86,51.09c-0.03-0.08-0.05-0.15-0.08-0.23c-1.39-3.88-4.22-12.77-6.14-25.3c-0.03-0.17-0.05-0.35-0.08-0.53
		C62.6,95.9,63.41,87.41,63.63,78.27z M60.73,96.78c-0.6-5.42-1.01-11.64-1.04-18.52h2.29C61.82,84.83,61.36,91.06,60.73,96.78z
		 M76.39,78.27h34.26c-0.19,16.93,1.61,35.76,7.6,53.62c0.02,0.06,0.06,0.19,0.12,0.36c-9.27,21.58-19.25,25.7-23.14,26.46
		c-0.59,0.09-1.2,0.15-1.77,0.16c-0.6-0.01-1.2-0.06-1.77-0.15c-4.71-0.91-13.9-5.64-22.85-26.93
		C74.78,113.95,76.57,95.17,76.39,78.27z M111.15,65.63c-0.24,3.59-0.41,7.31-0.48,11.14H59.69c0.01-3.55,0.13-7.27,0.38-11.14
		H111.15z M60.17,64.13c0.22-3.09,0.53-6.27,0.94-9.53c0.33,3.21,0.57,6.4,0.72,9.53H60.17z M67.6,23.85
		c1.23,4.67,5.03,20.1,6.53,40.29H63.47c-0.25-5.19-0.72-10.5-1.48-15.86c0.03-0.16,0.06-0.33,0.08-0.49
		c1.22-7.58,2.99-15.39,5.44-23.65C67.54,24.03,67.57,23.94,67.6,23.85z M24.31,170.89V160c0.04,0.01,2.44,0.99,4.75,0.96h0.01
		c0.56,0.05,12.96,1.08,25.51-26.65c0.02,0.06,0.05,0.13,0.07,0.2c1.02,2.73,2.89,7.31,5.59,12.35c0.02,0.04,0.04,0.08,0.07,0.12
		C54.75,159.21,41.66,174.47,24.31,170.89z M101.04,170.31c-0.39,0.15-0.88,0.29-1.51,0.43c-1.94,0.49-3.93,0.74-5.86,0.74
		l-0.26-0.01l-0.16,0.01c-1.97,0-3.96-0.25-5.92-0.75c-0.61-0.14-1.1-0.28-1.53-0.44c-10.66-3.45-18.55-13.94-23.66-23.15
		c-0.03-0.05-0.06-0.1-0.09-0.15c-0.15-0.26-0.28-0.53-0.43-0.79c-0.15-0.28-0.3-0.56-0.45-0.83c-0.02-0.04-0.05-0.08-0.07-0.13
		c-2.99-5.7-4.85-10.63-5.59-12.73c-0.02-0.07-0.05-0.15-0.07-0.21c-0.19-0.54-0.29-0.84-0.3-0.88c-0.02-0.07-0.04-0.13-0.07-0.2
		c-0.14-0.42-0.27-0.84-0.41-1.26c-0.03-0.09-0.06-0.17-0.08-0.26c-5.49-17.19-7.16-35.19-6.97-51.44c0-0.25,0-0.5,0.01-0.75
		c0-0.25,0.01-0.5,0.01-0.75c0.07-3.83,0.24-7.55,0.48-11.14c0.02-0.25,0.03-0.5,0.05-0.75c0.02-0.25,0.04-0.5,0.06-0.75
		c1.49-19.92,5.2-35.21,6.48-40.1c0.02-0.09,0.05-0.18,0.07-0.27c0.09-0.33,0.16-0.61,0.22-0.83H66.3c-0.02,0.05-0.03,0.1-0.04,0.15
		c-2.09,6.96-3.69,13.57-4.9,20.1c-0.03,0.14-0.05,0.29-0.08,0.43c-0.13,0.72-0.26,1.44-0.38,2.16c-0.14,0.83-0.28,1.65-0.41,2.47
		c-0.03,0.17-0.05,0.34-0.08,0.51c-0.82,5.3-1.38,10.43-1.72,15.37c-0.02,0.25-0.03,0.5-0.05,0.75c-0.02,0.25-0.04,0.5-0.05,0.75
		c-0.24,3.84-0.35,7.55-0.35,11.14c0,0.25,0,0.5,0,0.75c0,0.25,0,0.5,0.01,0.75c0.06,9.06,0.78,17.22,1.8,24.3
		c0.03,0.18,0.05,0.36,0.08,0.54c0.13,0.92,0.27,1.82,0.42,2.7c0.12,0.74,0.24,1.46,0.37,2.18c0.03,0.15,0.05,0.3,0.08,0.45
		c2.29,12.79,5.31,21,6.08,22.99c0.03,0.08,0.06,0.16,0.09,0.22c0.06,0.15,0.1,0.24,0.11,0.26c0.11,0.27,0.22,0.52,0.33,0.78
		c0.14,0.34,0.29,0.68,0.43,1.02c0.03,0.07,0.06,0.14,0.09,0.2c9.02,20.63,18.42,25.34,23.32,26.29c0.66,0.11,1.34,0.17,2.03,0.18
		c0.67-0.01,1.35-0.07,2.03-0.18c4.05-0.79,14.21-4.9,23.6-25.86c1,2.75,2.9,7.48,5.7,12.72
		C119.69,156.28,111.77,166.83,101.04,170.31z M414.59,168.45c0,0-3.53,1.24-5.53,1.71c-0.33,0.08-0.69,0.16-1.08,0.25
		c-0.38,0.09-0.78,0.18-1.22,0.27c-7.13,1.55-13.27,1.38-17.99-0.34c-0.25-0.09-0.5-0.2-0.74-0.3c-4.15-1.72-7.12-4.71-8.54-8.88
		c-1.18-3.48-0.14-10.44,1.57-14.75c1.54-3.9,2.56-6.52,3.42-8.73c1.51-3.88,2.5-6.44,4.97-12.4c1.72-4.16,3.52-9.29,2.07-12.02
		c-0.46-0.87-1.25-1.45-2.26-1.65c-0.62-0.13-1.28-0.19-1.98-0.19c-12.11,0-36.43,17.97-45.62,30.24
		c-6.72,8.97-11.76,20.17-14.46,26.19c-0.74,1.65-1.35,3.01-1.71,3.68l-12.47,0.02c0.58-1.11,1.18-2.23,1.75-3.29
		c1.08-2.02,2.01-3.77,2.57-4.97c0.87-1.87,3.44-7.2,3.44-7.2c0.15-0.31,0.07-0.69-0.2-0.91c-0.27-0.22-0.65-0.23-0.93-0.02
		c-9.63,7.27-16.77,11.37-23.85,13.7c-17.58,5.79-30.39,2.61-38.07-9.46c-0.11-0.17-0.29-0.3-0.49-0.33s-0.41,0.01-0.58,0.13
		c-15.08,11.05-28.62,12.33-37.49,12.33c-14.38,0-22.34-3.3-29.36-12.19c-0.13-0.16-0.32-0.27-0.53-0.28
		c-0.21-0.02-0.41,0.05-0.57,0.19c-14.26,13.03-30.74,12.25-30.95,12.24c-13.11,0-22.74-10.83-28.52-19.91
		c-0.97-1.53-1.87-3.06-2.69-4.56c-0.15-0.26-0.29-0.53-0.43-0.79c-0.15-0.28-0.3-0.55-0.44-0.83c-3.11-5.93-5.02-11.1-5.71-13.09
		c-0.19-0.55-0.29-0.86-0.3-0.88c-0.02-0.07-0.04-0.14-0.07-0.2c-0.14-0.42-0.27-0.84-0.41-1.26c-5.55-17.26-7.24-35.36-7.06-51.69
		c0-0.25,0-0.5,0.01-0.75c0-0.25,0.01-0.5,0.01-0.75c0.07-3.83,0.24-7.55,0.48-11.14c0.02-0.25,0.03-0.5,0.05-0.75
		c0.02-0.25,0.04-0.5,0.06-0.75c1.52-20.3,5.34-35.94,6.55-40.52c0.09-0.33,0.16-0.62,0.22-0.83h11.29
		c-2.13,7.44-3.74,14.62-4.93,21.48c-0.13,0.75-0.26,1.49-0.38,2.23c-0.14,0.87-0.28,1.73-0.4,2.59
		c-0.78,5.22-1.31,10.24-1.66,15.04c-0.02,0.25-0.04,0.5-0.06,0.75c-0.02,0.25-0.03,0.5-0.05,0.75c-0.25,3.87-0.37,7.59-0.4,11.14
		c0,0.25,0,0.5,0,0.75c0,0.25,0,0.5,0,0.75c0.01,8.72,0.62,16.36,1.43,22.69c0.08,0.66,0.17,1.3,0.26,1.94
		c0.13,0.94,0.27,1.86,0.41,2.76c0.12,0.76,0.24,1.5,0.36,2.23c2.34,13.7,5.6,22.26,6.22,23.81c0.06,0.16,0.1,0.25,0.11,0.26
		c0.11,0.27,0.22,0.52,0.33,0.78c0.14,0.34,0.29,0.68,0.43,1.01c5.25,12.12,10.98,19.98,17.49,24c15.52,8.57,31.64-6.8,33.39-9.29
		c0.09-0.13,0.14-0.3,0.14-0.46c0-0.05-0.19-4.87,0.25-9.98c0.96-11.09,3.83-24.11,17.88-36.67c4.04-3.61,11.81-7.83,16.95-8.38
		c3.91-0.41,6.65,0.15,8.39,1.71c1.63,1.47,2.42,3.9,2.42,7.44c0,8.51-5.79,26.35-21.73,40.6l-0.43,0.39
		c-2.01,1.8-5.76,5.16-9.14,7.71c-0.31,0.24-0.39,0.67-0.18,1c4.04,6.3,10.54,9.49,19.32,9.5l0.27,0
		c6.47,0.09,22.7-0.99,33.69-12.79c0.13-0.14,0.21-0.33,0.2-0.53c-0.53-26.35,8.4-38,18.12-46.66c4.16-3.71,11.32-7.77,16.96-8.38
		c3.97-0.43,6.75,0.14,8.49,1.72c1.61,1.47,2.37,3.9,2.32,7.42c-0.12,7.9-4.83,25.35-21.73,40.61c-0.59,0.53-1.19,1.09-1.81,1.66
		c-2.31,2.14-4.93,4.56-7.72,6.41c-0.17,0.11-0.28,0.28-0.32,0.48c-0.04,0.2,0,0.4,0.12,0.57c7.59,11.08,17.06,9.98,25.32,7.45
		c11.02-3.38,27.12-16.29,36.64-29.37c0.1-0.13,10.17-13.38,16.12-26.19c1.27-2.73,2.21-5,3.13-7.2c0.62-1.5,1.21-2.92,1.85-4.33
		h11.56c-1.27,2.8-3.7,7.97-6.26,13.4c-2.1,4.46-4.27,9.06-5.91,12.59c-0.15,0.33-0.05,0.72,0.25,0.93
		c0.29,0.21,0.69,0.18,0.96-0.07c5.2-4.99,19.35-16.87,38.29-19.29c14.03-1.8,15.95,7.79,16.03,8.22
		c1.06,5.01-0.38,12.43-4.29,22.05c-0.88,2.17-1.6,3.91-2.24,5.47c-1.56,3.79-2.69,6.53-4.61,11.69c-1.77,4.78-1.9,8.39-0.4,10.74
		c0.01,0.01,0.01,0.03,0.02,0.04c0.31,0.48,0.69,0.9,1.13,1.26c0.97,0.8,2.25,1.33,3.82,1.57c0.37,0.06,0.75,0.1,1.15,0.12
		c0,0,0.01,0,0.01,0c0.01,0,0.02,0,0.03,0c0.21,0.01,1.39,0.04,3.41-0.3c2.45-0.41,6.11-1.38,10.79-3.62l1.98-1.04
		c10.98-6.42,17.85-16.82,22.33-26.69c0.27,0.86,0.54,1.71,0.83,2.56c0.04,0.14,1.56,5.06,4.64,11.44
		C436.62,153.11,427.82,163.28,414.59,168.45z M485.22,170.89c-6.16,1.54-13.59-0.11-15.28-0.64
		c-12.47-4.03-21.01-17.05-25.86-26.92c-0.12-0.24-0.24-0.49-0.35-0.73c-0.15-0.31-0.29-0.62-0.44-0.92
		c-2.72-5.81-4.07-10.17-4.11-10.31c-0.47-1.4-0.91-2.81-1.33-4.22c-0.11-0.38-0.22-0.76-0.33-1.14c-0.11-0.39-0.23-0.78-0.33-1.18
		c-4.35-15.69-5.71-31.85-5.56-46.57c0-0.25,0-0.5,0.01-0.75c0-0.25,0.01-0.5,0.01-0.75c0.07-3.83,0.23-7.55,0.47-11.14
		c0.02-0.25,0.03-0.5,0.05-0.75c0.02-0.25,0.04-0.5,0.05-0.75c1.55-20.94,5.56-36.93,6.63-40.92c0.04-0.16,0.08-0.31,0.12-0.43
		h11.29c-0.01,0.02-0.01,0.04-0.01,0.05c-2.01,7.06-3.57,13.89-4.74,20.44c-0.13,0.72-0.25,1.43-0.37,2.14
		c-0.14,0.82-0.27,1.64-0.4,2.45c-0.88,5.64-1.49,11.07-1.86,16.26c-0.02,0.25-0.03,0.5-0.05,0.75c-0.02,0.25-0.03,0.5-0.05,0.75
		c-0.25,3.85-0.38,7.56-0.4,11.14c0,0.25,0,0.5,0,0.75s0,0.5,0,0.75c0.01,8.23,0.57,15.68,1.39,22.23c0.11,0.86,0.22,1.71,0.34,2.54
		c0.1,0.7,0.2,1.38,0.3,2.06c1.59,10.29,3.75,17.94,5.22,22.37c0.14,0.43,0.28,0.83,0.41,1.2c0.13,0.39,0.26,0.74,0.38,1.06
		c0.49,1.36,0.8,2.09,0.83,2.14c7.57,20.42,17.42,26.27,23.14,27.89c0,0,5,1.5,10.85,0.08V170.89z"/>
</g>
</svg>
