<?xml version="1.0" encoding="UTF-8" standalone="no"?>
<!-- Created with Inkscape (http://www.inkscape.org/) -->

<svg
   width="174.25633mm"
   height="49.999565mm"
   viewBox="0 0 174.25633 49.999563"
   version="1.1"
   id="svg16331"
   xml:space="preserve"
   inkscape:version="1.2.2 (b0a84865, 2022-12-01)"
   sodipodi:docname="meent_logo_9.svg"
   xmlns:inkscape="http://www.inkscape.org/namespaces/inkscape"
   xmlns:sodipodi="http://sodipodi.sourceforge.net/DTD/sodipodi-0.dtd"
   xmlns="http://www.w3.org/2000/svg"
   xmlns:svg="http://www.w3.org/2000/svg"><sodipodi:namedview
     id="namedview16333"
     pagecolor="#ffffff"
     bordercolor="#000000"
     borderopacity="0.25"
     inkscape:showpageshadow="2"
     inkscape:pageopacity="0.0"
     inkscape:pagecheckerboard="0"
     inkscape:deskcolor="#d1d1d1"
     inkscape:document-units="mm"
     showgrid="false"
     inkscape:zoom="1.0442552"
     inkscape:cx="164.23189"
     inkscape:cy="183.38429"
     inkscape:window-width="2249"
     inkscape:window-height="1387"
     inkscape:window-x="67"
     inkscape:window-y="25"
     inkscape:window-maximized="0"
     inkscape:current-layer="layer1" /><defs
     id="defs16328" /><g
     inkscape:label="Layer 1"
     inkscape:groupmode="layer"
     id="layer1"
     transform="translate(-336.70969,-476.15562)"><g
       id="g30071"
       transform="matrix(0.41106925,0,0,0.5515339,117.90726,210.22032)"><path
         style="fill:#016efc;stroke:#000000;stroke-width:0.630296;stroke-opacity:1"
         d="m 533.40743,571.82123 c -2.01029,-1.64245 -0.53039,-6.51961 6.96677,-22.95971 8.69268,-19.06164 17.33601,-35.87166 19.11416,-37.17423 2.19279,-1.60633 4.72272,-1.63805 6.62593,-0.0831 1.84892,1.51061 1.49724,3.23703 -1.82782,8.97288 -1.33578,2.30428 -2.42869,4.31626 -2.42869,4.47106 0,0.15481 3.01739,-2.05167 6.70532,-4.90328 8.68224,-6.71335 15.02853,-9.45776 21.84833,-9.44815 5.48962,0.007 9.72215,1.69192 12.09926,4.81449 1.25482,1.64833 1.53277,2.85717 1.52504,6.63251 l -0.009,4.61678 7.01871,-5.75623 c 7.80866,-6.40407 12.86216,-9.16575 18.50455,-10.11253 6.31955,-1.0604 12.72278,1.07064 15.16224,5.0461 3.55337,5.79074 2.38268,10.50558 -6.1945,24.94761 -6.81781,11.47962 -8.30129,14.9025 -8.3146,19.18433 -0.0152,4.89348 4.95084,7.7454 10.75969,6.1791 8.48321,-2.28744 24.86644,-17.97247 29.25322,-28.00658 4.91141,-11.23409 17.31688,-21.64837 30.92098,-25.95785 6.47464,-2.05104 16.49162,-2.20722 20.84103,-0.32495 3.98011,1.72244 6.27694,4.15911 7.18643,7.62397 1.81283,6.90621 -2.37621,12.80543 -13.06047,18.39239 -8.28292,4.33127 -22.38037,8.21512 -33.45201,9.21602 -2.40558,0.21748 -4.55377,0.63333 -4.77375,0.92412 -0.21997,0.29079 -0.4102,2.24393 -0.42275,4.3403 -0.0505,8.44483 5.35293,13.09254 15.87451,13.65416 11.3626,0.60652 25.55813,-4.7773 37.87898,-14.36605 5.84938,-4.55229 8.00896,-7.20842 10.57892,-13.01126 5.21406,-11.77311 17.35006,-22.07011 31.17229,-26.4487 6.47464,-2.05104 16.49162,-2.20722 20.84103,-0.32495 3.98011,1.72244 6.27694,4.15911 7.18644,7.62397 1.81283,6.90621 -2.37622,12.80543 -13.06048,18.39239 -8.28293,4.33127 -22.38036,8.21512 -33.45201,9.21602 -2.40559,0.21748 -4.55378,0.63333 -4.77374,0.92412 -0.21997,0.29079 -0.4102,2.24393 -0.42276,4.3403 -0.0505,8.44483 5.35293,13.09254 15.87451,13.65416 11.36229,0.6065 25.59904,-4.79305 37.85693,-14.35794 7.64044,-5.96187 10.0376,-9.3194 17.63489,-24.69992 7.17517,-14.52606 8.72431,-16.64718 12.15795,-16.64718 0.93742,0 2.36466,0.53946 3.17167,1.19879 1.88821,1.54271 1.50117,3.2576 -2.14039,9.48346 -1.51205,2.58511 -2.57501,4.70019 -2.36212,4.70019 0.21286,0 2.595,-1.67018 5.29363,-3.71152 5.64392,-4.26928 12.44329,-8.04356 17.96368,-9.97149 2.84342,-0.99303 5.20145,-1.34912 9.11844,-1.37699 4.69355,-0.0333 5.66639,0.15392 8.71641,1.67821 4.413,2.20547 6.57108,5.48336 6.57108,9.98079 0,4.59025 -1.27438,7.53353 -8.31871,19.21274 -6.85953,11.3728 -7.8191,13.59578 -7.8191,18.11412 0,3.54179 1.33075,5.52498 4.40555,6.56557 6.4926,2.19723 16.8603,-4.29055 28.7256,-17.97558 3.88898,-4.48541 5.69569,-7.20608 7.1083,-10.70416 1.04173,-2.5796 3.73287,-8.21883 5.98035,-12.53161 2.24748,-4.31279 4.08632,-8.09431 4.08632,-8.40338 0,-0.31642 -2.1527,-0.56193 -4.92703,-0.56193 -5.71999,0 -7.6246,-0.63526 -7.6246,-2.54309 0,-2.61701 1.5692,-3.15265 9.2892,-3.17082 l 7.09765,-0.0167 7.548,-11.86904 c 8.47785,-13.33121 10.76239,-16.01383 13.63751,-16.01383 2.99627,0 4.55813,1.26695 4.47612,3.63092 -0.0757,2.18284 -1.68512,5.0752 -8.91638,16.02441 -2.48335,3.76016 -4.52128,7.15711 -4.52874,7.5488 -0.01,0.50962 1.52878,0.71214 5.4098,0.71214 5.84647,0 8.52291,0.89192 8.52291,2.84022 0,2.36519 -1.73532,2.85699 -10.08095,2.85699 h -7.88938 l -4.01081,7.26393 c -11.64784,21.0953 -15.54124,34.91397 -11.2928,40.08101 2.23231,2.71498 6.19917,3.7997 10.38991,2.84106 6.96187,-1.59254 15.86016,-8.69231 25.60226,-20.42752 4.70351,-5.66579 6.56314,-6.76873 8.8258,-5.23449 2.48843,1.68731 0.78758,4.71759 -8.18392,14.58072 -5.88739,6.47252 -13.6894,12.48667 -19.45668,14.99815 -5.02773,2.18941 -12.0426,2.91045 -17.20926,1.76886 -5.95885,-1.31662 -11.30061,-7.18483 -11.31536,-12.43057 -0.003,-1.33172 -0.1681,-2.42131 -0.36525,-2.42131 -0.19713,0 -3.41349,2.50149 -7.14745,5.55886 -9.19756,7.53097 -13.93305,9.53872 -22.49811,9.53872 -5.39122,0 -6.31019,-0.16168 -8.90923,-1.56737 -3.91112,-2.11533 -5.85186,-5.36571 -6.26121,-10.48637 -0.44442,-5.55922 1.2781,-9.93362 8.32184,-21.13374 8.69145,-13.82009 10.03411,-18.1162 6.5512,-20.96182 -4.79603,-3.91846 -18.43949,0.89924 -32.33651,11.41849 -9.18606,6.95332 -15.21332,16.03003 -23.26751,35.03959 -1.52677,3.60348 -3.10055,6.87225 -3.49729,7.26393 -0.91889,0.90715 -4.89107,0.92604 -5.98964,0.0285 -1.52887,-1.24912 -0.51868,-6.47867 2.49461,-12.91411 0.23953,-0.51154 -1.19992,0.23791 -3.19877,1.66546 -7.26039,5.18523 -18.91912,9.94437 -27.89629,11.38735 -6.10696,0.98163 -16.87918,0.43919 -21.80084,-1.09778 -7.54764,-2.35702 -12.56911,-7.47474 -13.62546,-13.88663 l -0.44658,-2.71069 -4.41723,3.52315 c -7.46868,5.95698 -15.69039,10.08313 -26.0834,13.09023 -3.87796,1.12205 -5.892,1.31096 -13.94624,1.30817 -8.12648,-0.002 -9.95218,-0.17863 -13.3515,-1.28568 -7.46234,-2.43022 -12.31138,-7.31726 -13.55253,-13.65875 l -0.45532,-2.32639 -1.78094,1.81559 c -3.92332,3.9997 -11.85421,10.28177 -15.25012,12.07964 -11.25999,5.96131 -23.76455,4.55428 -27.92844,-3.14253 -1.56606,-2.89483 -1.51451,-10.33599 0.0987,-14.243 0.71159,-1.7234 4.27446,-8.00456 7.91748,-13.95814 5.90581,-9.65148 6.66023,-11.23373 6.96081,-14.59885 0.29491,-3.30148 0.15152,-3.92582 -1.14493,-4.98505 -3.19955,-2.61411 -8.17771,-1.31651 -17.05079,4.44441 -10.53577,6.84043 -19.02229,16.13899 -24.86705,27.24651 -2.28907,4.35021 -3.85971,7.70314 -8.81168,18.81068 -1.38303,3.1022 -2.6536,4.12008 -5.14291,4.12008 -2.98407,0 -4.39735,-1.44957 -3.83477,-3.93327 0.25524,-1.12683 4.32393,-10.76551 9.04154,-21.41927 8.74927,-19.75844 10.60087,-24.92323 9.75143,-27.20032 -1.78175,-4.77636 -8.11999,-4.40974 -17.44772,1.00923 -6.33217,3.67869 -17.54037,13.59353 -21.40519,18.93518 -3.89099,5.37781 -8.90641,14.73253 -13.05362,24.34751 -1.62186,3.76015 -3.26722,7.15711 -3.65636,7.54879 -0.90129,0.90721 -4.87708,0.92616 -5.97579,0.0285 z m 162.68299,-33.2747 c 8.23909,-2.21884 13.37579,-4.52905 17.88683,-8.04454 4.94795,-3.85597 6.71012,-7.06422 5.51084,-10.03315 -3.06356,-7.58418 -19.81751,-3.2639 -30.92181,7.97369 -3.58068,3.62367 -8.85151,11.06241 -8.8593,12.50316 -0.005,0.87724 9.24943,-0.47792 16.38344,-2.39916 z m 71.82319,0 c 8.23908,-2.21884 13.37578,-4.52905 17.88683,-8.04454 4.94794,-3.85597 6.71012,-7.06422 5.51084,-10.03315 -3.06357,-7.58418 -19.81751,-3.2639 -30.92181,7.97369 -3.58069,3.62367 -8.85151,11.06241 -8.8593,12.50316 -0.005,0.87724 9.24942,-0.47792 16.38344,-2.39916 z"
         id="path30073" /></g></g></svg>
